<svg xmlns="http://www.w3.org/2000/svg" viewBox="0 0 479.32 89.53"><defs><style>.cls-1,.cls-2{fill:#fff;}.cls-2{font-size:29.89px;font-family:Montserrat-Bold, Montserrat;font-weight:700;}.cls-3{font-size:48.57px;}</style></defs><title>logo2</title><g id="graphics"><path class="cls-1" d="M83.2,12.4a5.81,5.81,0,1,0-7.31-3.78A5.8,5.8,0,0,0,83.2,12.4Z"/><path class="cls-1" d="M95.56,9.17a2.66,2.66,0,1,0-3.35-1.72A2.66,2.66,0,0,0,95.56,9.17Z"/><path class="cls-1" d="M92,57A204.39,204.39,0,0,1,56,78.14,30.32,30.32,0,0,0,92,57Z"/><path class="cls-1" d="M122.53,13.39c-3.89-6.28-21.87-1.64-44.19,9.12a30.33,30.33,0,0,0-45.76,27C11.33,64.51-1.93,78.39,2.12,84.94c5.27,8.5,37-.8,69.73-20.38S127.79,21.89,122.53,13.39Zm-84.2,53c-2.9.62-4.86.47-5.51-.58s.15-3,2.14-5.38A29.85,29.85,0,0,0,38.33,66.39ZM93,45.26c-.11-.94-.25-1.88-.45-2.82C79.86,53.14,57.25,66,43,71.52a31.5,31.5,0,0,0,2.78,2.13C31.15,79.29,19.55,80.58,16.69,76s4.09-13.08,16.25-22.53a31.32,31.32,0,0,0,1,4.21C26.08,64.15,21.8,69.46,23.18,71.7c4.63,7.48,58.47-22,73.65-38.43,3.64-3.94,5.48-6.84,4.52-8.38-1.34-2.16-7.71-1-16.72,2.57a31.4,31.4,0,0,0-2.91-2.63c13.18-5.45,23.32-7.18,26-2.84C110.51,26.49,104.33,35.49,93,45.26ZM86.7,29.83c2.57-.42,4.3-.2,4.91.78s0,2.54-1.55,4.54A29.83,29.83,0,0,0,86.7,29.83Z"/><text class="cls-2" transform="translate(127.45 32.38)">THE<tspan class="cls-3"><tspan x="0" y="39.76">CREATIVERSE</tspan></tspan></text></g></svg>